<svg width="276" height="63" viewBox="0 0 276 63" fill="none" xmlns="http://www.w3.org/2000/svg">
<path d="M85.125 45H82.213L70.501 27.24V45H67.589V22.664H70.501L82.213 40.392V22.664H85.125V45ZM91.593 24.616C91.0383 24.616 90.569 24.424 90.185 24.04C89.801 23.656 89.609 23.1867 89.609 22.632C89.609 22.0773 89.801 21.608 90.185 21.224C90.569 20.84 91.0383 20.648 91.593 20.648C92.1263 20.648 92.5743 20.84 92.937 21.224C93.321 21.608 93.513 22.0773 93.513 22.632C93.513 23.1867 93.321 23.656 92.937 24.04C92.5743 24.424 92.1263 24.616 91.593 24.616ZM93.001 27.464V45H90.089V27.464H93.001ZM106.508 27.144C108.641 27.144 110.369 27.7947 111.692 29.096C113.015 30.376 113.676 32.232 113.676 34.664V45H110.796V35.08C110.796 33.3307 110.359 31.9973 109.484 31.08C108.609 30.1413 107.415 29.672 105.9 29.672C104.364 29.672 103.137 30.152 102.22 31.112C101.324 32.072 100.876 33.4693 100.876 35.304V45H97.964V27.464H100.876V29.96C101.452 29.064 102.231 28.3707 103.212 27.88C104.215 27.3893 105.313 27.144 106.508 27.144ZM117.345 33.832C117.345 31.656 117.835 29.704 118.817 27.976C119.798 26.2267 121.131 24.8613 122.817 23.88C124.523 22.8987 126.411 22.408 128.481 22.408C130.913 22.408 133.035 22.9947 134.849 24.168C136.662 25.3413 137.985 27.0053 138.817 29.16H135.329C134.71 27.816 133.814 26.7813 132.641 26.056C131.489 25.3307 130.102 24.968 128.481 24.968C126.923 24.968 125.526 25.3307 124.289 26.056C123.051 26.7813 122.081 27.816 121.377 29.16C120.673 30.4827 120.321 32.04 120.321 33.832C120.321 35.6027 120.673 37.16 121.377 38.504C122.081 39.8267 123.051 40.8507 124.289 41.576C125.526 42.3013 126.923 42.664 128.481 42.664C130.102 42.664 131.489 42.312 132.641 41.608C133.814 40.8827 134.71 39.848 135.329 38.504H138.817C137.985 40.6373 136.662 42.2907 134.849 43.464C133.035 44.616 130.913 45.192 128.481 45.192C126.411 45.192 124.523 44.712 122.817 43.752C121.131 42.7707 119.798 41.416 118.817 39.688C117.835 37.96 117.345 36.008 117.345 33.832ZM150.8 45.288C149.157 45.288 147.664 44.9147 146.32 44.168C144.997 43.4213 143.952 42.3653 143.184 41C142.437 39.6133 142.064 38.0133 142.064 36.2C142.064 34.408 142.448 32.8293 143.216 31.464C144.005 30.0773 145.072 29.0213 146.416 28.296C147.76 27.5493 149.264 27.176 150.928 27.176C152.592 27.176 154.096 27.5493 155.44 28.296C156.784 29.0213 157.84 30.0667 158.608 31.432C159.397 32.7973 159.792 34.3867 159.792 36.2C159.792 38.0133 159.386 39.6133 158.576 41C157.786 42.3653 156.709 43.4213 155.344 44.168C153.978 44.9147 152.464 45.288 150.8 45.288ZM150.8 42.728C151.845 42.728 152.826 42.4827 153.744 41.992C154.661 41.5013 155.397 40.7653 155.952 39.784C156.528 38.8027 156.816 37.608 156.816 36.2C156.816 34.792 156.538 33.5973 155.984 32.616C155.429 31.6347 154.704 30.9093 153.808 30.44C152.912 29.9493 151.941 29.704 150.896 29.704C149.829 29.704 148.848 29.9493 147.952 30.44C147.077 30.9093 146.373 31.6347 145.84 32.616C145.306 33.5973 145.04 34.792 145.04 36.2C145.04 37.6293 145.296 38.8347 145.808 39.816C146.341 40.7973 147.045 41.5333 147.92 42.024C148.794 42.4933 149.754 42.728 150.8 42.728ZM184.708 27.144C186.074 27.144 187.29 27.432 188.356 28.008C189.423 28.5627 190.266 29.4053 190.884 30.536C191.503 31.6667 191.812 33.0427 191.812 34.664V45H188.932V35.08C188.932 33.3307 188.495 31.9973 187.62 31.08C186.767 30.1413 185.604 29.672 184.132 29.672C182.618 29.672 181.412 30.1627 180.516 31.144C179.62 32.104 179.172 33.5013 179.172 35.336V45H176.292V35.08C176.292 33.3307 175.855 31.9973 174.98 31.08C174.127 30.1413 172.964 29.672 171.492 29.672C169.978 29.672 168.772 30.1627 167.876 31.144C166.98 32.104 166.532 33.5013 166.532 35.336V45H163.62V27.464H166.532V29.992C167.108 29.0747 167.876 28.3707 168.836 27.88C169.818 27.3893 170.895 27.144 172.068 27.144C173.54 27.144 174.842 27.4747 175.972 28.136C177.103 28.7973 177.946 29.768 178.5 31.048C178.991 29.8107 179.802 28.8507 180.932 28.168C182.063 27.4853 183.322 27.144 184.708 27.144ZM199.501 30.696C200.077 29.6933 200.93 28.8613 202.061 28.2C203.213 27.5173 204.546 27.176 206.061 27.176C207.618 27.176 209.026 27.5493 210.285 28.296C211.565 29.0427 212.568 30.0987 213.293 31.464C214.018 32.808 214.381 34.376 214.381 36.168C214.381 37.9387 214.018 39.5173 213.293 40.904C212.568 42.2907 211.565 43.368 210.285 44.136C209.026 44.904 207.618 45.288 206.061 45.288C204.568 45.288 203.245 44.9573 202.093 44.296C200.962 43.6133 200.098 42.7707 199.501 41.768V53.32H196.589V27.464H199.501V30.696ZM211.405 36.168C211.405 34.8453 211.138 33.6933 210.605 32.712C210.072 31.7307 209.346 30.984 208.429 30.472C207.533 29.96 206.541 29.704 205.453 29.704C204.386 29.704 203.394 29.9707 202.477 30.504C201.581 31.016 200.856 31.7733 200.301 32.776C199.768 33.7573 199.501 34.8987 199.501 36.2C199.501 37.5227 199.768 38.6853 200.301 39.688C200.856 40.6693 201.581 41.4267 202.477 41.96C203.394 42.472 204.386 42.728 205.453 42.728C206.541 42.728 207.533 42.472 208.429 41.96C209.346 41.4267 210.072 40.6693 210.605 39.688C211.138 38.6853 211.405 37.512 211.405 36.168ZM217.126 36.168C217.126 34.376 217.489 32.808 218.214 31.464C218.939 30.0987 219.931 29.0427 221.19 28.296C222.47 27.5493 223.889 27.176 225.446 27.176C226.982 27.176 228.315 27.5067 229.446 28.168C230.577 28.8293 231.419 29.6613 231.974 30.664V27.464H234.918V45H231.974V41.736C231.398 42.76 230.534 43.6133 229.382 44.296C228.251 44.9573 226.929 45.288 225.414 45.288C223.857 45.288 222.449 44.904 221.19 44.136C219.931 43.368 218.939 42.2907 218.214 40.904C217.489 39.5173 217.126 37.9387 217.126 36.168ZM231.974 36.2C231.974 34.8773 231.707 33.7253 231.174 32.744C230.641 31.7627 229.915 31.016 228.998 30.504C228.102 29.9707 227.11 29.704 226.022 29.704C224.934 29.704 223.942 29.96 223.046 30.472C222.15 30.984 221.435 31.7307 220.902 32.712C220.369 33.6933 220.102 34.8453 220.102 36.168C220.102 37.512 220.369 38.6853 220.902 39.688C221.435 40.6693 222.15 41.4267 223.046 41.96C223.942 42.472 224.934 42.728 226.022 42.728C227.11 42.728 228.102 42.472 228.998 41.96C229.915 41.4267 230.641 40.6693 231.174 39.688C231.707 38.6853 231.974 37.5227 231.974 36.2ZM248.383 27.144C250.516 27.144 252.244 27.7947 253.567 29.096C254.89 30.376 255.551 32.232 255.551 34.664V45H252.671V35.08C252.671 33.3307 252.234 31.9973 251.359 31.08C250.484 30.1413 249.29 29.672 247.775 29.672C246.239 29.672 245.012 30.152 244.095 31.112C243.199 32.072 242.751 33.4693 242.751 35.304V45H239.839V27.464H242.751V29.96C243.327 29.064 244.106 28.3707 245.087 27.88C246.09 27.3893 247.188 27.144 248.383 27.144ZM275.412 27.464L264.852 53.256H261.844L265.3 44.808L258.228 27.464H261.46L266.964 41.672L272.404 27.464H275.412Z" fill="black"/>
<path d="M44.7969 30.5V34.3125C50.5785 34.3125 55.2812 39.0152 55.2812 44.7969C55.2812 50.5785 50.5785 55.2812 44.7969 55.2812C39.0152 55.2812 34.3125 50.5785 34.3125 44.7969H30.5C30.5 47.6245 31.3385 50.3887 32.9095 52.7398C34.4804 55.0909 36.7133 56.9234 39.3257 58.0055C41.9381 59.0876 44.8127 59.3707 47.5861 58.819C50.3594 58.2674 52.9068 56.9057 54.9063 54.9063C56.9057 52.9068 58.2674 50.3594 58.819 47.5861C59.3707 44.8127 59.0876 41.9381 58.0055 39.3257C56.9234 36.7133 55.0909 34.4804 52.7398 32.9095C50.3887 31.3385 47.6245 30.5 44.7969 30.5Z" fill="#669F77"/>
<path d="M44.7969 49.5625C46.0608 49.5625 47.273 49.0604 48.1667 48.1667C49.0604 47.273 49.5625 46.0608 49.5625 44.7969C49.5625 43.533 49.0604 42.3208 48.1667 41.4271C47.273 40.5334 46.0608 40.0313 44.7969 40.0313C44.1831 40.0313 43.6017 40.1571 43.0622 40.3687L33.754 31.0585L31.0585 33.754L40.3687 43.0641C40.1493 43.6156 40.0348 44.2033 40.0312 44.7969C40.0312 46.0608 40.5333 47.273 41.4271 48.1667C42.3208 49.0604 43.533 49.5625 44.7969 49.5625ZM55.2812 24.7813H51.4688V18.2505L30.5 6.01995L24.7812 9.35589V24.7813H20.9688V8.2598C20.969 7.9269 21.0564 7.59987 21.2223 7.31125C21.3882 7.02263 21.6267 6.78248 21.9143 6.6147L29.5393 2.16552C29.8308 1.99536 30.1624 1.9057 30.5 1.9057C30.8376 1.9057 31.1692 1.99536 31.4607 2.16552L54.3358 15.5093C54.6236 15.6772 54.8623 15.9177 55.0282 16.2066C55.1941 16.4956 55.2813 16.823 55.2812 17.1563V24.7813ZM13.3438 11.4375H17.1562V30.5H13.3438V11.4375Z" fill="#4ECB71"/>
<path d="M26.6875 57.1703L6.66425 45.4908C6.37645 45.3228 6.1377 45.0824 5.9718 44.7934C5.8059 44.5044 5.71865 44.177 5.71875 43.8438V17.1562H9.53125V42.7496L28.609 53.8783L26.6875 57.1703Z" fill="#4ECB71"/>
</svg>
