<svg width="597" height="455" viewBox="0 0 597 455" fill="none" xmlns="http://www.w3.org/2000/svg">
<path d="M87.2652 408.396C203.615 469.231 392.26 469.231 508.611 408.396C624.961 347.561 624.961 249.065 508.611 188.287C392.26 127.508 203.615 127.452 87.2652 188.287C-29.0851 249.121 -29.0851 347.603 87.2652 408.396Z" fill="#F5F5F5"/>
<path d="M151.538 128.796L179.579 112.611L151.538 96.4259L123.243 112.611L151.538 128.796Z" stroke="#EBEBEB" stroke-width="1.08419" stroke-linecap="round" stroke-linejoin="round"/>
<path d="M129.765 112.625L151.552 49.6538V125.202L129.765 112.625Z" fill="#E0E0E0"/>
<path d="M151.552 125.202L173.325 112.625L151.552 49.6538V125.202Z" fill="#E6E6E6"/>
<path d="M117.272 148.546L145.313 132.361L117.272 116.176L88.9771 132.361L117.272 148.546Z" stroke="#EBEBEB" stroke-width="1.08419" stroke-linecap="round" stroke-linejoin="round"/>
<path d="M95.499 132.375L117.272 38.8591V144.952L95.499 132.375Z" fill="#E0E0E0"/>
<path d="M117.272 144.952L139.045 132.375L117.272 38.8591V144.952Z" fill="#E6E6E6"/>
<path d="M83.0067 168.296L111.047 152.111L83.0067 135.926L54.6973 152.111L83.0067 168.296Z" stroke="#EBEBEB" stroke-width="1.08419" stroke-linecap="round" stroke-linejoin="round"/>
<path d="M61.2334 152.125L83.0066 96.4259V164.702L61.2334 152.125Z" fill="#E0E0E0"/>
<path d="M83.0066 164.702L104.78 152.125L83.0066 96.4259V164.702Z" fill="#E6E6E6"/>
<path d="M48.7411 188.046L76.7817 171.861L48.7411 155.676L20.4316 171.861L48.7411 188.046Z" stroke="#EBEBEB" stroke-width="1.08419" stroke-linecap="round" stroke-linejoin="round"/>
<path d="M26.9536 171.875L48.741 77.3124V184.453L26.9536 171.875Z" fill="#E0E0E0"/>
<path d="M48.741 184.453L70.5142 171.875L48.741 77.3124V184.453Z" fill="#E6E6E6"/>
<path d="M422.451 107.277L571.992 193.606" stroke="#EBEBEB" stroke-width="1.08419" stroke-miterlimit="10" stroke-linecap="round"/>
<path d="M571.992 184.453C571.811 173.616 571.051 162.796 569.714 152.04C568.299 140.354 565.47 120.633 554.223 114.125C542.975 107.617 538.731 119.388 537.104 125.174C534.982 132.686 523.961 127.933 522.433 115.554C520.905 103.174 519.9 63.7307 506.686 56.1334C493.473 48.5361 489.214 66.8573 487.714 71.9788C484.758 82.0378 476.085 79.2648 473.256 72.6013C470.426 65.9377 462.701 64.3108 459.787 73.6906C456.873 83.0705 455.076 93.8369 445.639 88.3052C437.349 83.4525 441.154 74.6103 433.076 70.4084C426.681 67.0979 423.71 82.8866 423.71 98.8593L571.992 184.453Z" fill="#E0E0E0"/>
<path d="M561.127 102.127C561.127 103.853 559.57 104.349 557.675 103.259L546.357 96.6947C545.426 96.1674 544.63 95.4319 544.032 94.5459C543.433 93.6599 543.047 92.6473 542.905 91.5874C542.905 89.8756 544.461 89.3662 546.357 90.4697L557.675 97.0343C558.605 97.5585 559.4 98.2913 559.999 99.175C560.598 100.059 560.984 101.069 561.127 102.127Z" fill="#E6E6E6"/>
<path d="M514.666 46.6262C514.666 48.3522 513.124 48.8474 511.214 47.758L499.896 41.1935C498.963 40.6687 498.166 39.9339 497.567 39.0474C496.967 38.161 496.583 37.1471 496.444 36.0862C496.444 34.3743 497.986 33.865 499.896 34.9685L511.214 41.533C512.145 42.0556 512.942 42.7879 513.541 43.6719C514.14 44.556 514.525 45.5675 514.666 46.6262Z" fill="#E6E6E6"/>
<path d="M477.868 56.8408C477.868 58.5668 476.326 59.062 474.43 57.9726L463.112 51.4081C462.179 50.8833 461.382 50.1485 460.783 49.262C460.183 48.3755 459.799 47.3617 459.66 46.3008C459.66 44.5889 461.202 44.0796 463.112 45.1831L474.43 51.7476C475.358 52.2727 476.151 53.0059 476.748 53.8897C477.345 54.7735 477.728 55.7837 477.868 56.8408Z" fill="#E6E6E6"/>
<path d="M442.98 60.2221C442.98 61.9481 441.437 62.4433 439.527 61.3397L428.209 54.7894C427.281 54.2612 426.487 53.5253 425.891 52.6392C425.295 51.7531 424.911 50.741 424.771 49.6821C424.771 47.9702 426.314 47.4609 428.209 48.5644L439.527 55.1148C440.459 55.6413 441.255 56.3765 441.854 57.2627C442.453 58.1489 442.838 59.1619 442.98 60.2221Z" fill="#E6E6E6"/>
<path d="M416.226 94.5301V1" stroke="#EBEBEB" stroke-width="1.08419" stroke-miterlimit="10" stroke-linecap="round"/>
<path d="M53.7493 301.411C53.7493 301.411 56.0695 280.642 49.6323 260.864C43.5771 242.161 31.4102 232.243 24.0392 229.272C10.1038 223.712 8.8588 239.063 19.2998 249.687C26.9537 257.497 45.3739 273.597 48.543 300.902L53.7493 301.411Z" fill="#92E3A9"/>
<path opacity="0.7" d="M53.7493 301.411C53.7493 301.411 56.0695 280.642 49.6323 260.864C43.5771 242.161 31.4102 232.243 24.0392 229.272C10.1038 223.712 8.8588 239.063 19.2998 249.687C26.9537 257.497 45.3739 273.597 48.543 300.902L53.7493 301.411Z" fill="white"/>
<path d="M20.2759 233.559C28.6937 239.218 51.3158 255.559 52.1364 301.256" stroke="#FAFAFA" stroke-width="1.08419" stroke-miterlimit="10" stroke-linecap="round"/>
<path d="M47.8215 315.601C43.4923 294.663 34.65 287.065 18.8471 278.973C12.0845 275.521 4.16182 271.673 1.304 267.273C-1.55383 262.873 -0.110767 256.959 9.62282 257.087C27.4064 257.327 47.6659 278.761 50.3681 302.246L47.8215 315.601Z" fill="#92E3A9"/>
<path opacity="0.8" d="M47.8215 315.601C43.4923 294.663 34.65 287.065 18.8471 278.973C12.0845 275.521 4.16182 271.673 1.304 267.273C-1.55383 262.873 -0.110767 256.959 9.62282 257.087C27.4064 257.327 47.6659 278.761 50.3681 302.246L47.8215 315.601Z" fill="white"/>
<path d="M8.12305 261.642C21.5492 263.467 42.7565 279.115 49.4908 306.915" stroke="#FAFAFA" stroke-width="1.08419" stroke-miterlimit="10" stroke-linecap="round"/>
<path d="M543.824 291.607C549.271 281.138 553.501 251.767 546.498 238.185C539.495 224.604 529.082 225.693 527.469 230.093C526.055 234.153 529.549 241.411 534.076 250.055C538.604 258.699 542.423 277.219 538.137 285.849L543.824 291.607Z" fill="#92E3A9"/>
<path opacity="0.7" d="M543.824 291.607C549.271 281.138 553.501 251.767 546.498 238.185C539.495 224.604 529.082 225.693 527.469 230.093C526.055 234.153 529.549 241.411 534.076 250.055C538.604 258.699 542.423 277.219 538.137 285.849L543.824 291.607Z" fill="white"/>
<path d="M534.345 230.8C538.802 234.38 551.563 256.266 542.636 286.302" stroke="#FAFAFA" stroke-width="1.08419" stroke-miterlimit="10" stroke-linecap="round"/>
<path d="M542.098 302.699C538.816 296.134 531.629 285.269 536.524 277.813C541.419 270.357 546.54 276.95 550.474 272.083C554.407 267.216 549.908 259.35 553.303 255.106C559.868 246.759 564.621 256.45 569.771 255.177C573.492 254.257 577.637 246.009 588.347 247.013C599.057 248.018 598.519 256.507 593.751 260.496C588.983 264.486 583.324 268.461 587.003 274.446C590.257 279.751 591.94 289.555 580.806 293.361C570.167 296.997 575.43 301.609 573.732 306.816C572.035 312.022 561.99 316.959 551.308 312.942L542.098 302.699Z" fill="#92E3A9"/>
<path opacity="0.8" d="M542.098 302.699C538.816 296.134 531.629 285.269 536.524 277.813C541.419 270.357 546.54 276.95 550.474 272.083C554.407 267.216 549.908 259.35 553.303 255.106C559.868 246.759 564.621 256.45 569.771 255.177C573.492 254.257 577.637 246.009 588.347 247.013C599.057 248.018 598.519 256.507 593.751 260.496C588.983 264.486 583.324 268.461 587.003 274.446C590.257 279.751 591.94 289.555 580.806 293.361C570.167 296.997 575.43 301.609 573.732 306.816C572.035 312.022 561.99 316.959 551.308 312.942L542.098 302.699Z" fill="white"/>
<path d="M589.818 251.824C578.217 254.936 550.431 277.516 548.083 305.854" stroke="#FAFAFA" stroke-width="1.08419" stroke-miterlimit="10" stroke-linecap="round"/>
<path d="M581.457 281.576C575.727 280.275 561.169 280.091 555.722 282.736" stroke="#FAFAFA" stroke-width="1.08419" stroke-miterlimit="10" stroke-linecap="round"/>
<path d="M558.962 257.596C558.962 257.596 563.206 265.816 562.598 272.734" stroke="#FAFAFA" stroke-width="1.08419" stroke-miterlimit="10" stroke-linecap="round"/>
<path d="M400.706 177.308C398.81 170.742 395.421 164.704 390.803 159.666C385.346 153.715 378.963 148.684 371.902 144.768C363.702 140.124 354.984 136.463 345.927 133.861C335.95 130.981 325.714 129.086 315.368 128.202C304.68 127.225 293.926 127.225 283.238 128.202C272.896 129.085 262.666 130.981 252.694 133.861C243.631 136.46 234.908 140.121 226.704 144.768C219.643 148.718 213.265 153.782 207.817 159.765C203.204 164.806 199.815 170.843 197.914 177.407C196.224 183.479 196.224 189.897 197.914 195.969C199.8 202.535 203.191 208.571 207.817 213.597C213.269 219.585 219.651 224.654 226.719 228.607C234.912 233.251 243.626 236.908 252.68 239.501C262.656 242.394 272.891 244.308 283.238 245.217C293.927 246.179 304.68 246.179 315.368 245.217C325.721 244.304 335.96 242.385 345.941 239.487C354.994 236.893 363.709 233.237 371.902 228.593C378.971 224.643 385.355 219.574 390.803 213.583C395.423 208.552 398.813 202.518 400.706 195.955C402.399 189.854 402.399 183.408 400.706 177.308Z" fill="#37474F"/>
<path d="M196.641 177.336H401.966V187.806L196.641 187.226V177.336Z" fill="#37474F"/>
<path d="M283.238 118.822L299.282 177.308L252.694 124.537C262.664 121.638 272.894 119.724 283.238 118.822Z" fill="#455A64"/>
<path d="M315.368 118.822L299.324 177.308L283.281 118.793C293.955 117.829 304.695 117.839 315.368 118.822Z" fill="#455A64"/>
<path d="M345.927 124.537L299.324 177.308L315.368 118.793C325.717 119.705 335.953 121.629 345.927 124.537Z" fill="#455A64"/>
<path d="M390.789 150.428C395.404 155.473 398.793 161.515 400.692 168.084L299.338 177.308L390.789 150.428Z" fill="#455A64"/>
<path d="M400.706 168.098C402.383 174.167 402.383 180.577 400.706 186.646L299.338 177.308L400.706 168.098Z" fill="#455A64"/>
<path d="M400.706 186.646C398.81 193.212 395.421 199.25 390.803 204.288L299.338 177.407L400.706 186.646Z" fill="#455A64"/>
<path d="M390.803 204.288C385.354 210.274 378.971 215.338 371.902 219.284L299.31 177.308L390.803 204.288Z" fill="#455A64"/>
<path d="M299.324 177.379L345.941 230.192C335.959 233.073 325.719 234.968 315.368 235.851L299.31 177.336L299.324 177.379Z" fill="#455A64"/>
<path d="M299.31 177.393L315.368 235.908C304.68 236.884 293.926 236.884 283.239 235.908L299.31 177.393Z" fill="#455A64"/>
<path d="M299.282 177.379L283.21 235.893C272.859 235.011 262.619 233.115 252.637 230.234L299.282 177.379Z" fill="#455A64"/>
<path d="M299.282 177.379L252.595 230.192C243.543 227.587 234.829 223.926 226.634 219.284L299.282 177.379Z" fill="#455A64"/>
<path d="M299.268 177.308L207.803 204.189C203.179 199.155 199.789 193.115 197.9 186.547L299.268 177.308Z" fill="#455A64"/>
<path d="M299.268 177.308L197.914 186.646C196.223 180.579 196.223 174.165 197.914 168.098L299.268 177.308Z" fill="#455A64"/>
<path d="M299.268 177.308L197.914 168.041C199.818 161.475 203.206 155.434 207.817 150.385L299.268 177.308Z" fill="#455A64"/>
<path d="M226.705 135.459L299.268 177.308L207.817 150.428C213.267 144.455 219.645 139.4 226.705 135.459Z" fill="#455A64"/>
<path d="M371.902 135.459L299.324 177.308L345.927 124.509C354.988 127.119 363.707 130.794 371.902 135.459Z" fill="#455A64"/>
<path d="M371.902 135.459C378.964 139.397 385.342 144.451 390.789 150.428L299.338 177.308L371.902 135.459Z" fill="#455A64"/>
<path d="M299.282 177.308L226.676 219.228C219.61 215.279 213.227 210.215 207.775 204.231L299.239 177.351L299.282 177.308Z" fill="#455A64"/>
<path d="M252.694 124.537L299.282 177.308L226.705 135.403C234.907 130.765 243.631 127.117 252.694 124.537Z" fill="#455A64"/>
<path d="M299.324 177.379L371.902 219.284C363.706 223.926 354.993 227.587 345.941 230.192L299.324 177.379Z" fill="#455A64"/>
<path d="M237.216 118.284L294.868 151.559L292.038 104.518C270.831 105.424 252.821 109.951 237.216 118.284Z" fill="#92E3A9"/>
<path opacity="0.2" d="M237.216 118.284L294.868 151.559L292.038 104.518C270.831 105.424 252.821 109.951 237.216 118.284Z" fill="white"/>
<path d="M294.868 151.559V169.725L237.216 136.435V118.284L294.868 151.559Z" fill="#92E3A9"/>
<path opacity="0.1" d="M294.868 151.559V169.725L237.216 136.435V118.284L294.868 151.559Z" fill="black"/>
<path d="M369.61 122.953L303.441 152.804V170.956L369.61 141.104V122.953Z" fill="#92E3A9"/>
<path opacity="0.3" d="M369.61 122.953L303.441 152.804V170.956L369.61 141.104V122.953Z" fill="black"/>
<path d="M369.61 122.953C351.798 110.828 328.044 104.434 300.513 104.349L302.281 133.762L303.441 152.804L369.61 122.953Z" fill="#92E3A9"/>
<path opacity="0.1" d="M369.61 122.953C351.798 110.828 328.044 104.434 300.513 104.349L302.281 133.762L303.441 152.804L369.61 122.953Z" fill="black"/>
<path d="M300.499 104.349V122.5L303.441 170.956V152.804L300.499 104.349Z" fill="#263238"/>
<path d="M316.896 187.763L350.723 220.303C352.619 219.581 354.373 218.888 356.382 217.926C379.683 207.428 391.864 191.696 391.85 175.823V157.855C389.289 151.022 382.244 151.036 374.873 145.023L305.79 176.148L305.097 176.459L316.896 187.763Z" fill="#92E3A9"/>
<path opacity="0.6" d="M316.896 187.763L350.723 220.303C352.619 219.581 354.373 218.888 356.382 217.926C379.683 207.428 391.864 191.696 391.85 175.823V157.855C389.289 151.022 382.244 151.036 374.873 145.023L305.79 176.148L305.097 176.459L316.896 187.763Z" fill="white"/>
<path d="M316.896 169.612L350.723 202.151C352.619 201.43 354.373 200.737 356.382 199.76C395.387 182.147 403.197 149.89 374.901 126.815L305.818 157.94L305.125 158.251L316.896 169.612Z" fill="#92E3A9"/>
<path opacity="0.8" d="M316.896 169.612L350.723 202.151C352.619 201.43 354.373 200.737 356.382 199.76C395.387 182.147 403.197 149.89 374.901 126.815L305.818 157.94L305.125 158.251L316.896 169.612Z" fill="white"/>
<path d="M350.666 220.274V202.109L305.054 158.294V176.445L350.666 220.274Z" fill="#92E3A9"/>
<path opacity="0.6" d="M350.666 220.274V202.109L305.054 158.294V176.445L350.666 220.274Z" fill="white"/>
<path d="M231.218 139.902C221.498 146.028 210.704 149.89 206.771 157.332V175.497C206.771 184.962 211.17 194.554 220.296 203.326C233.029 215.535 253.189 224.165 277.141 227.603C299.307 230.875 321.922 229.228 343.38 222.779V204.627L313.599 194.158L296.113 177.308L231.218 139.902Z" fill="#92E3A9"/>
<path opacity="0.6" d="M231.218 139.902C221.498 146.028 210.704 149.89 206.771 157.332V175.497C206.771 184.962 211.17 194.554 220.296 203.326C233.029 215.535 253.189 224.165 277.141 227.603C299.307 230.875 321.922 229.228 343.38 222.779V204.627L313.599 194.158L296.113 177.308L231.218 139.902Z" fill="black"/>
<path d="M231.218 121.75C203.29 139.322 198.791 164.504 220.296 185.16C233.029 197.384 253.189 206 277.141 209.452C299.308 212.716 321.921 211.069 343.38 204.627L313.6 176.006L296.113 159.213L231.218 121.75Z" fill="#92E3A9"/>
<path opacity="0.3" d="M231.218 121.75C203.29 139.322 198.791 164.504 220.296 185.16C233.029 197.384 253.189 206 277.141 209.452C299.308 212.716 321.921 211.069 343.38 204.627L313.6 176.006L296.113 159.213L231.218 121.75Z" fill="black"/>
<path d="M555.27 319.704C553.373 313.138 549.984 307.1 545.366 302.062C539.921 296.077 533.543 291.013 526.479 287.066C518.28 282.421 509.561 278.76 500.504 276.158C490.527 273.278 480.292 271.383 469.945 270.499C459.258 269.522 448.503 269.522 437.816 270.499C427.474 271.384 417.244 273.279 407.271 276.158C398.214 278.76 389.495 282.421 381.296 287.066C374.227 291.011 367.844 296.076 362.395 302.062C357.781 307.103 354.393 313.14 352.491 319.704C350.801 325.776 350.801 332.194 352.491 338.266C354.377 344.832 357.768 350.868 362.395 355.894C367.846 361.882 374.229 366.951 381.296 370.905C389.492 375.543 398.205 379.199 407.257 381.798C417.24 384.671 427.48 386.566 437.83 387.457C448.518 388.419 459.271 388.419 469.959 387.457C480.31 386.568 490.549 384.672 500.532 381.798C509.588 379.206 518.303 375.544 526.493 370.89C533.567 366.946 539.955 361.881 545.409 355.894C550.025 350.86 553.415 344.827 555.312 338.266C556.982 332.189 556.967 325.773 555.27 319.704Z" fill="#37474F"/>
<path d="M351.204 319.69H556.529V330.159L351.204 329.579V319.69Z" fill="#37474F"/>
<path d="M437.802 261.175L453.859 319.69L407.257 266.891C417.227 263.993 427.458 262.079 437.802 261.175Z" fill="#455A64"/>
<path d="M469.931 261.175L453.888 319.69L437.83 261.175C448.508 260.201 459.253 260.201 469.931 261.175Z" fill="#455A64"/>
<path d="M500.49 266.891L453.887 319.69L469.931 261.175C480.279 262.078 490.515 263.992 500.49 266.891Z" fill="#455A64"/>
<path d="M545.352 292.795C549.97 297.839 553.359 303.882 555.255 310.452L453.902 319.718L545.352 292.795Z" fill="#455A64"/>
<path d="M555.27 310.452C556.953 316.52 556.953 322.931 555.27 328.999L453.916 319.718L555.27 310.452Z" fill="#455A64"/>
<path d="M555.27 328.999C553.369 335.563 549.98 341.601 545.366 346.641L453.902 319.761L555.27 328.999Z" fill="#455A64"/>
<path d="M545.38 346.641C539.919 352.621 533.532 357.684 526.465 361.638L453.873 319.718L545.38 346.641Z" fill="#455A64"/>
<path d="M453.887 319.733L500.504 372.546C490.521 375.42 480.281 377.315 469.931 378.205L453.873 319.69L453.887 319.733Z" fill="#455A64"/>
<path d="M453.873 319.747L469.931 378.205C459.243 379.174 448.489 379.174 437.802 378.205L453.873 319.747Z" fill="#455A64"/>
<path d="M453.859 319.733L437.802 378.205C427.451 377.314 417.212 375.419 407.229 372.546L453.859 319.733Z" fill="#455A64"/>
<path d="M453.859 319.733L407.172 372.546C398.122 369.936 389.409 366.275 381.211 361.638L453.859 319.733Z" fill="#455A64"/>
<path d="M453.831 319.718L362.366 346.599C357.742 341.565 354.352 335.526 352.463 328.957L453.831 319.718Z" fill="#455A64"/>
<path d="M453.831 319.718L352.477 328.999C350.787 322.932 350.787 316.519 352.477 310.452L453.831 319.718Z" fill="#455A64"/>
<path d="M453.831 319.704L352.477 310.437C354.378 303.869 357.766 297.827 362.38 292.781L453.831 319.704Z" fill="#455A64"/>
<path d="M381.282 277.756L453.831 319.648L362.38 292.767C367.829 286.776 374.212 281.706 381.282 277.756Z" fill="#455A64"/>
<path d="M526.465 277.756L453.887 319.648L500.49 266.849C509.549 269.445 518.268 273.106 526.465 277.756Z" fill="#455A64"/>
<path d="M526.465 277.756C533.528 281.698 539.907 286.758 545.352 292.739L453.916 319.619L526.465 277.756Z" fill="#455A64"/>
<path d="M453.859 319.704L381.267 361.638C374.204 357.684 367.822 352.621 362.366 346.641L453.831 319.761L453.859 319.704Z" fill="#455A64"/>
<path d="M407.257 266.891L453.859 319.69L381.282 277.756C389.48 273.121 398.199 269.474 407.257 266.891Z" fill="#455A64"/>
<path d="M453.887 319.733L526.465 361.638C518.269 366.28 509.556 369.941 500.504 372.546L453.887 319.733Z" fill="#455A64"/>
<path d="M363.427 296.728V326.127C362.683 323.441 362.302 320.667 362.296 317.879V296.728H363.427Z" fill="#92E3A9"/>
<path opacity="0.3" d="M363.427 296.728V326.127C362.683 323.441 362.302 320.667 362.296 317.879V296.728H363.427Z" fill="black"/>
<path d="M453.831 296.757L363.427 305.019C361.928 299.608 361.928 293.891 363.427 288.48L453.831 296.757Z" fill="#92E3A9"/>
<path d="M453.831 296.728L363.427 288.452C365.127 282.594 368.152 277.206 372.27 272.706L453.831 296.728Z" fill="#92E3A9"/>
<path d="M389.12 259.364L453.831 296.728L372.27 272.677C377.135 267.364 382.824 262.868 389.12 259.364Z" fill="#92E3A9"/>
<path d="M412.293 249.631L453.859 296.714L389.119 259.364C396.432 255.216 404.211 251.949 412.293 249.631Z" fill="#92E3A9"/>
<path d="M439.542 244.538L453.859 296.714L412.293 249.631C421.187 247.044 430.314 245.338 439.542 244.538Z" fill="#92E3A9"/>
<path d="M468.276 244.538L453.887 296.714L439.57 244.538C449.118 243.658 458.727 243.658 468.276 244.538Z" fill="#92E3A9"/>
<path d="M495.453 249.631L453.887 296.714L468.276 244.538C477.48 245.342 486.582 247.048 495.453 249.631Z" fill="#92E3A9"/>
<g opacity="0.2">
<path d="M453.831 296.757L363.427 305.019C361.928 299.608 361.928 293.891 363.427 288.48L453.831 296.757Z" fill="white"/>
<path d="M453.831 296.728L363.427 288.452C365.127 282.594 368.152 277.206 372.27 272.706L453.831 296.728Z" fill="white"/>
<path d="M389.12 259.364L453.831 296.728L372.27 272.677C377.135 267.364 382.824 262.868 389.12 259.364Z" fill="white"/>
<path d="M412.293 249.631L453.859 296.714L389.12 259.364C396.433 255.216 404.212 251.949 412.293 249.631Z" fill="white"/>
<path d="M439.542 244.538L453.859 296.714L412.293 249.631C421.187 247.044 430.314 245.338 439.542 244.538Z" fill="white"/>
<path d="M468.276 244.538L453.887 296.714L439.57 244.538C449.118 243.658 458.727 243.658 468.276 244.538Z" fill="white"/>
<path d="M495.453 249.631L453.887 296.714L468.276 244.538C477.48 245.342 486.582 247.048 495.453 249.631Z" fill="white"/>
</g>
<path d="M530.525 310.848L516.958 323.581L506.644 333.328L496.812 342.581L495.496 343.812V364.934C503.576 362.618 511.355 359.356 518.67 355.215C524.972 351.681 530.666 347.157 535.534 341.817C539.65 337.331 542.667 331.95 544.348 326.099C545.097 323.413 545.483 320.639 545.494 317.851V296.743L530.525 310.848Z" fill="#92E3A9"/>
<path opacity="0.3" d="M530.525 310.848L516.958 323.581L506.644 333.328L496.812 342.581L495.496 343.812V364.934C503.576 362.618 511.355 359.356 518.67 355.215C524.972 351.681 530.666 347.157 535.534 341.817C539.65 337.331 542.667 331.95 544.348 326.099C545.097 323.413 545.483 320.639 545.494 317.851V296.743L530.525 310.848Z" fill="black"/>
<path d="M535.477 272.734C539.589 277.238 542.614 282.625 544.319 288.48L453.902 296.757L535.477 272.734Z" fill="#92E3A9"/>
<path d="M545.451 296.771C545.44 299.564 545.054 302.343 544.305 305.033L516.915 302.515L453.902 296.743L530.483 289.669L544.305 288.41C545.062 291.132 545.448 293.945 545.451 296.771Z" fill="#92E3A9"/>
<path d="M544.305 305.033C542.621 310.883 539.604 316.263 535.491 320.751L506.602 312.263L453.902 296.7L516.915 302.472L544.305 305.033Z" fill="#92E3A9"/>
<path d="M535.491 320.751C530.623 326.091 524.93 330.615 518.627 334.149L496.769 321.501L453.916 296.771L506.616 312.333L535.491 320.751Z" fill="#92E3A9"/>
<path d="M518.627 259.364L453.887 296.743L495.453 249.659C503.532 251.973 511.31 255.231 518.627 259.364Z" fill="#92E3A9"/>
<path d="M518.627 259.364C524.924 262.889 530.613 267.403 535.477 272.734L453.902 296.785L518.627 259.364Z" fill="#92E3A9"/>
<path d="M518.627 334.149C511.312 338.286 503.533 341.543 495.453 343.854L453.916 296.771L496.769 321.501L518.627 334.149Z" fill="#92E3A9"/>
<g opacity="0.2">
<path d="M535.477 272.734C539.589 277.238 542.614 282.625 544.319 288.48L453.902 296.757L535.477 272.734Z" fill="white"/>
<path d="M545.451 296.771C545.44 299.564 545.054 302.342 544.305 305.033L516.915 302.515L453.902 296.743L530.483 289.669L544.305 288.41C545.062 291.132 545.448 293.945 545.451 296.771Z" fill="white"/>
<path d="M544.305 305.033C542.621 310.883 539.604 316.263 535.491 320.751L506.602 312.263L453.902 296.7L516.915 302.472L544.305 305.033Z" fill="white"/>
<path d="M535.491 320.751C530.623 326.091 524.93 330.615 518.627 334.149L496.769 321.501L453.916 296.771L506.616 312.333L535.491 320.751Z" fill="white"/>
<path d="M518.627 259.364L453.887 296.743L495.453 249.659C503.532 251.973 511.31 255.231 518.627 259.364Z" fill="white"/>
<path d="M518.627 259.364C524.924 262.889 530.613 267.403 535.477 272.734L453.902 296.785L518.627 259.364Z" fill="white"/>
<path d="M518.627 334.149C511.312 338.286 503.533 341.543 495.453 343.854L453.916 296.771L496.769 321.501L518.627 334.149Z" fill="white"/>
</g>
<path d="M495.467 343.868V364.991L453.859 317.851V296.714L495.467 343.868Z" fill="#263238"/>
<path d="M453.859 317.851L363.427 326.156V305.019L453.859 296.714V317.851Z" fill="#92E3A9"/>
<path opacity="0.1" d="M453.859 317.851L363.427 326.156V305.019L453.859 296.714V317.851Z" fill="black"/>
<path d="M246.157 319.704C244.261 313.138 240.872 307.1 236.254 302.062C230.806 296.079 224.429 291.015 217.367 287.066C209.164 282.418 200.44 278.757 191.378 276.158C181.406 273.278 171.175 271.383 160.833 270.499C150.145 269.522 139.391 269.522 128.704 270.499C118.357 271.384 108.122 273.279 98.1447 276.158C89.0778 278.758 80.3496 282.419 72.1413 287.066C65.0777 291.013 58.6995 296.077 53.2542 302.062C48.6368 307.1 45.2473 313.138 43.3509 319.704C41.6741 325.778 41.6741 332.192 43.3509 338.266C45.2441 344.829 48.6341 350.863 53.2542 355.894C58.6984 361.884 65.0767 366.953 72.1413 370.905C80.3346 375.548 89.0489 379.205 98.1023 381.798C108.085 384.672 118.325 386.568 128.675 387.457C139.364 388.419 150.117 388.419 160.805 387.457C171.155 386.568 181.395 384.672 191.378 381.798C200.434 379.206 209.149 375.544 217.339 370.89C224.413 366.947 230.801 361.883 236.254 355.894C240.874 350.863 244.264 344.829 246.157 338.266C247.834 332.192 247.834 325.778 246.157 319.704Z" fill="#37474F"/>
<path d="M42.0776 319.69H247.403V330.159L42.0776 329.579V319.69Z" fill="#37474F"/>
<path d="M128.732 261.175L144.775 319.69L98.1731 266.891C108.149 263.993 118.384 262.079 128.732 261.175Z" fill="#455A64"/>
<path d="M160.805 261.175L144.761 319.69L128.732 261.175C139.401 260.203 150.136 260.203 160.805 261.175Z" fill="#455A64"/>
<path d="M191.349 266.891L144.761 319.69L160.805 261.175C171.149 262.078 181.379 263.992 191.349 266.891Z" fill="#455A64"/>
<path d="M236.254 292.795C240.872 297.839 244.261 303.882 246.157 310.452L144.79 319.718L236.254 292.795Z" fill="#455A64"/>
<path d="M246.157 310.452C247.834 316.521 247.834 322.93 246.157 328.999L144.79 319.718L246.157 310.452Z" fill="#455A64"/>
<path d="M246.157 328.999C244.261 335.565 240.872 341.603 236.254 346.641L144.79 319.761L246.157 328.999Z" fill="#455A64"/>
<path d="M236.254 346.641C230.798 352.621 224.416 357.684 217.353 361.638L144.747 319.718L236.254 346.641Z" fill="#455A64"/>
<path d="M144.761 319.733L191.378 372.546C181.395 375.42 171.155 377.315 160.805 378.205L144.733 319.69L144.761 319.733Z" fill="#455A64"/>
<path d="M144.733 319.747L160.805 378.205C150.136 379.17 139.401 379.17 128.732 378.205L144.733 319.747Z" fill="#455A64"/>
<path d="M144.719 319.733L128.732 378.205C118.381 377.315 108.142 375.42 98.1589 372.546L144.719 319.733Z" fill="#455A64"/>
<path d="M144.719 319.733L98.0316 372.546C89.0042 369.936 80.3146 366.275 72.1414 361.638L144.719 319.733Z" fill="#455A64"/>
<path d="M144.705 319.718L53.24 346.599C48.6222 341.561 45.2326 335.523 43.3367 328.957L144.705 319.718Z" fill="#455A64"/>
<path d="M144.705 319.718L43.3368 328.999C41.6605 322.93 41.6605 316.521 43.3368 310.452L144.705 319.718Z" fill="#455A64"/>
<path d="M144.705 319.704L43.3367 310.437C45.233 303.868 48.6224 297.825 53.24 292.781L144.705 319.704Z" fill="#455A64"/>
<path d="M72.1415 277.756L144.705 319.648L53.2544 292.767C58.6976 286.776 65.076 281.706 72.1415 277.756Z" fill="#455A64"/>
<path d="M217.339 277.756L144.761 319.648L191.349 266.849C200.414 269.442 209.138 273.104 217.339 277.756Z" fill="#455A64"/>
<path d="M217.339 277.756C224.414 281.716 230.802 286.795 236.254 292.795L144.804 319.676L217.339 277.756Z" fill="#455A64"/>
<path d="M144.719 319.704L72.1415 361.638C65.0756 357.688 58.6932 352.624 53.2402 346.641L144.705 319.761L144.719 319.704Z" fill="#455A64"/>
<path d="M98.1164 266.891L144.719 319.69L72.1414 277.756C80.3399 273.121 89.0591 269.474 98.1164 266.891Z" fill="#455A64"/>
<path d="M144.761 319.733L217.339 361.638C209.143 366.28 200.429 369.941 191.378 372.546L144.761 319.733Z" fill="#455A64"/>
<path d="M172.038 283.415L183.738 270.145C183.738 254.583 164.724 254.201 156.32 253.451C147.916 252.701 133.5 247.877 133.5 265.589L137.518 280.246C149.119 279.501 160.766 280.57 172.038 283.415Z" fill="#92E3A9"/>
<path opacity="0.6" d="M172.038 283.415L183.738 270.145C183.738 254.583 164.724 254.201 156.32 253.451C147.916 252.701 133.5 247.877 133.5 265.589L137.518 280.246C149.119 279.501 160.766 280.57 172.038 283.415Z" fill="white"/>
<path d="M172.038 262.576L183.738 249.32C167.355 245.056 150.382 243.517 133.5 244.764L137.518 259.365C149.121 258.633 160.768 259.717 172.038 262.576Z" fill="#92E3A9"/>
<path opacity="0.8" d="M172.038 262.576L183.738 249.32C167.355 245.056 150.382 243.517 133.5 244.764L137.518 259.365C149.121 258.633 160.768 259.717 172.038 262.576Z" fill="white"/>
<path d="M137.518 259.421V280.275L133.5 265.618V244.764L137.518 259.421Z" fill="#92E3A9"/>
<path d="M183.738 249.32L172.038 262.576V283.444L183.738 270.173V249.32Z" fill="#92E3A9"/>
<g opacity="0.6">
<path d="M137.518 259.421V280.275L133.5 265.618V244.764L137.518 259.421Z" fill="white"/>
<path d="M183.738 249.32L172.038 262.576V283.444L183.738 270.173V249.32Z" fill="white"/>
</g>
<path d="M177.754 264.26V285.113C182.635 286.689 187.346 288.751 191.816 291.267C195.717 293.482 199.3 296.214 202.47 299.388L225.417 292.64C220.854 287.982 215.658 283.991 209.982 280.784C203.715 277.191 197.009 262.618 177.754 264.26Z" fill="#92E3A9"/>
<path opacity="0.6" d="M177.754 264.26V285.113C182.635 286.689 187.346 288.751 191.816 291.267C195.717 293.482 199.3 296.214 202.47 299.388L225.417 292.64C220.854 287.982 215.658 283.991 209.982 280.784C203.715 277.191 197.009 262.618 177.754 264.26Z" fill="black"/>
<path d="M189.454 251.017L177.754 264.26C182.64 265.823 187.352 267.886 191.816 270.414C195.717 272.629 199.3 275.36 202.47 278.534L225.417 271.786C220.862 267.12 215.665 263.128 209.982 259.93C203.478 256.234 196.596 253.246 189.454 251.017Z" fill="#92E3A9"/>
<path opacity="0.3" d="M189.454 251.017L177.754 264.26C182.64 265.823 187.352 267.886 191.816 270.414C195.717 272.629 199.3 275.36 202.47 278.534L225.417 271.786C220.862 267.12 215.665 263.128 209.982 259.93C203.478 256.234 196.596 253.246 189.454 251.017Z" fill="black"/>
<path d="M202.469 278.534L225.417 271.772V292.64L202.469 299.388V278.534Z" fill="#92E3A9"/>
<path opacity="0.6" d="M202.469 278.534L225.417 271.772V292.64L202.469 299.388V278.534Z" fill="black"/>
<path d="M236.933 297.04H229.18C228.897 296.672 228.657 296.304 228.374 295.936L205.398 281.789V302.656C210.293 308.952 212.147 315.828 210.873 322.576L236.254 324.939C236.684 322.835 236.897 320.692 236.891 318.544L236.933 297.04Z" fill="#92E3A9"/>
<path opacity="0.6" d="M236.933 297.04H229.18C228.897 296.672 228.657 296.304 228.374 295.936L205.398 281.789V302.656C210.293 308.952 212.147 315.828 210.873 322.576L236.254 324.939C236.684 322.835 236.897 320.692 236.891 318.544L236.933 297.04Z" fill="black"/>
<path d="M210.859 301.807L236.254 304.085C238.32 294.281 235.702 284.194 228.36 275.082L205.384 281.831C210.279 288.127 212.203 295.017 210.859 301.807Z" fill="#92E3A9"/>
<path opacity="0.3" d="M210.859 301.807L236.254 304.085C238.32 294.281 235.702 284.194 228.36 275.082L205.384 281.831C210.279 288.127 212.203 295.017 210.859 301.807Z" fill="black"/>
<path d="M236.254 304.085V324.953L210.859 322.619V301.765L236.254 304.085Z" fill="#92E3A9"/>
<path opacity="0.6" d="M236.254 304.085V324.953L210.859 322.619V301.765L236.254 304.085Z" fill="black"/>
<path d="M131.18 280.869V260.001C117.032 253.479 90.689 260.1 81.8608 279.525L100.026 290.022C109.784 285.143 120.333 282.043 131.18 280.869Z" fill="#92E3A9"/>
<path opacity="0.3" d="M131.18 280.869V260.001C117.032 253.479 90.689 260.1 81.8608 279.525L100.026 290.022C109.784 285.143 120.333 282.043 131.18 280.869Z" fill="black"/>
<path d="M131.18 260.001L127.147 245.302C110.043 247.226 94.3815 251.937 81.875 258.671L100.041 269.155C109.793 264.276 120.338 261.177 131.18 260.001Z" fill="#92E3A9"/>
<path opacity="0.1" d="M131.18 260.001L127.147 245.302C110.043 247.226 94.3815 251.937 81.875 258.671L100.041 269.155C109.793 264.276 120.338 261.177 131.18 260.001Z" fill="black"/>
<path d="M100.026 269.155V290.022L81.8608 279.525V258.671L100.026 269.155Z" fill="#263238"/>
<path d="M81.0261 271.786L77.2911 282.128C65.0817 289.683 57.3712 298.78 54.2021 308.301L79.6679 310.621C82.0023 304.099 87.3218 297.889 95.5557 292.654V271.786H81.0261Z" fill="#92E3A9"/>
<path opacity="0.3" d="M81.0261 271.786L77.2911 282.128C65.0817 289.683 57.3712 298.78 54.2021 308.301L79.6679 310.621C82.0023 304.099 87.3218 297.889 95.5557 292.654V271.786H81.0261Z" fill="black"/>
<path d="M95.4991 271.786L77.2911 261.274C65.0817 268.815 57.3712 277.926 54.2021 287.433L79.6679 289.768C81.9457 283.246 87.2652 277.021 95.4991 271.786Z" fill="#92E3A9"/>
<path opacity="0.1" d="M95.4991 271.786L77.2911 261.274C65.0817 268.815 57.3712 277.926 54.2021 287.433L79.6679 289.768C81.9457 283.246 87.2652 277.021 95.4991 271.786Z" fill="black"/>
<path d="M54.2021 287.433V308.301L79.6113 310.621V289.768L54.2021 287.433Z" fill="#263238"/>
<path d="M78.6068 314.286V293.418L71.052 292.739L52.5469 297.563V318.403C52.6654 326.683 55.6672 334.663 61.0355 340.968L84.0112 334.22C79.2152 327.924 77.3477 321.034 78.6068 314.286Z" fill="#92E3A9"/>
<path opacity="0.3" d="M78.6068 314.286V293.418L71.052 292.739L52.5469 297.563V318.403C52.6654 326.683 55.6672 334.663 61.0355 340.968L84.0112 334.22C79.2152 327.924 77.3477 321.034 78.6068 314.286Z" fill="black"/>
<path d="M61.1204 320.115L84.0961 313.352V334.22L61.1204 340.968V320.115Z" fill="#263238"/>
<path d="M78.6211 293.418L53.1553 291.098C51.0897 300.916 53.707 310.989 61.0497 320.115L84.0255 313.352C79.2153 307.056 77.3478 300.166 78.6211 293.418Z" fill="#92E3A9"/>
<path opacity="0.1" d="M78.6211 293.418L53.1553 291.098C51.0897 300.916 53.707 310.989 61.0497 320.115L84.0255 313.352C79.2153 307.056 77.3478 300.166 78.6211 293.418Z" fill="black"/>
<path d="M105.799 340.94C95.0324 334.729 89.6562 326.594 89.6562 318.459V297.563H199.824V318.417C199.824 326.566 194.448 334.701 183.682 340.912C162.177 353.361 127.317 353.361 105.799 340.94Z" fill="#37474F"/>
<path d="M144.747 329.395C175.165 329.395 199.824 315.156 199.824 297.591C199.824 280.027 175.165 265.787 144.747 265.787C114.329 265.787 89.6704 280.027 89.6704 297.591C89.6704 315.156 114.329 329.395 144.747 329.395Z" fill="#455A64"/>
<path d="M100.026 346.91V344.25L64.0488 323.411V344.25C68.6131 348.912 73.8145 352.903 79.4981 356.106C86.0024 359.803 92.8845 362.791 100.026 365.019L111.712 351.777C107.693 350.469 103.786 348.842 100.026 346.91Z" fill="#92E3A9"/>
<path opacity="0.3" d="M100.026 346.91V344.25L64.0488 323.411V344.25C68.6131 348.912 73.8145 352.903 79.4981 356.106C86.0024 359.803 92.8845 362.791 100.026 365.019L111.712 351.777C107.693 350.469 103.786 348.842 100.026 346.91Z" fill="black"/>
<path d="M97.6073 324.769C93.7023 322.56 90.114 319.833 86.9399 316.662L63.9924 323.411C68.5603 328.068 73.7611 332.059 79.4417 335.267C85.9489 338.957 92.8304 341.945 99.9699 344.18L111.656 330.923C106.774 329.36 102.066 327.297 97.6073 324.769Z" fill="#92E3A9"/>
<path opacity="0.1" d="M97.6073 324.769C93.7023 322.56 90.114 319.833 86.9399 316.662L63.9924 323.411C68.5603 328.068 73.7611 332.059 79.4417 335.267C85.9489 338.957 92.8304 341.945 99.9699 344.18L111.656 330.923C106.774 329.36 102.066 327.297 97.6073 324.769Z" fill="black"/>
<path d="M100.026 365.033V344.18L111.712 330.923V351.791L100.026 365.033Z" fill="#263238"/>
<path d="M105.742 345.863V366.731C122.125 370.995 139.098 372.534 155.98 371.287V350.433L105.742 345.863Z" fill="#92E3A9"/>
<path opacity="0.1" d="M105.742 345.863V366.731C122.125 370.995 139.098 372.534 155.98 371.287V350.433L105.742 345.863Z" fill="black"/>
<path d="M117.414 332.607L105.714 345.863C122.097 350.125 139.069 351.669 155.952 350.433L151.963 335.762C140.352 336.515 128.696 335.45 117.414 332.607Z" fill="#92E3A9"/>
<path opacity="0.2" d="M117.414 332.607L105.714 345.863C122.097 350.125 139.069 351.669 155.952 350.433L151.963 335.762C140.352 336.515 128.696 335.45 117.414 332.607Z" fill="white"/>
<path d="M193.981 344.25L212.203 354.776C224.413 347.236 232.123 338.124 235.292 328.603V307.749L209.826 326.283C207.534 332.805 202.215 339.03 193.981 344.25Z" fill="#92E3A9"/>
<path opacity="0.1" d="M193.981 344.25L212.203 354.776C224.413 347.236 232.123 338.124 235.292 328.603V307.749L209.826 326.283C207.534 332.805 202.215 339.03 193.981 344.25Z" fill="black"/>
<path d="M193.981 323.397L212.203 333.923C224.413 326.368 232.123 317.271 235.292 307.749L209.826 305.429C207.534 311.951 202.215 318.162 193.981 323.397Z" fill="#92E3A9"/>
<path opacity="0.2" d="M193.981 323.397L212.203 333.923C224.413 326.368 232.123 317.271 235.292 307.749L209.826 305.429C207.534 311.951 202.215 318.162 193.981 323.397Z" fill="white"/>
<path d="M212.189 333.923V354.776L193.981 344.265V323.397L212.189 333.923Z" fill="#92E3A9"/>
<path opacity="0.3" d="M212.189 333.923V354.776L193.981 344.265V323.397L212.189 333.923Z" fill="black"/>
<path d="M162.333 349.909V355.568C160.989 355.781 159.659 355.965 158.301 356.12L162.333 370.805C178.815 368.966 194.575 364.51 207.605 357.464V336.54L162.333 349.909Z" fill="#92E3A9"/>
<path opacity="0.1" d="M162.333 349.909V355.568C160.989 355.781 159.659 355.965 158.301 356.12L162.333 370.805C178.815 368.966 194.575 364.51 207.605 357.464V336.54L162.333 349.909Z" fill="black"/>
<path d="M158.301 335.196L162.333 349.909C178.815 348.07 194.575 343.628 207.605 336.582L189.397 326.057C179.665 330.946 169.131 334.042 158.301 335.196Z" fill="#92E3A9"/>
<path opacity="0.2" d="M158.301 335.196L162.333 349.909C178.815 348.07 194.575 343.628 207.605 336.582L189.397 326.057C179.665 330.946 169.131 334.042 158.301 335.196Z" fill="white"/>
<path d="M162.333 349.867V370.721L158.301 356.064V335.196L162.333 349.867Z" fill="#92E3A9"/>
<path opacity="0.3" d="M162.333 349.867V370.721L158.301 356.064V335.196L162.333 349.867Z" fill="black"/>
<path d="M515.401 210.329C515.351 209.409 515.085 208.513 514.626 207.715C514.166 206.916 513.526 206.236 512.756 205.731L474.444 183.618C473.029 182.769 471.798 183.462 471.798 185.16V222.184C471.846 223.105 472.111 224.001 472.571 224.8C473.03 225.599 473.672 226.278 474.444 226.782L490.487 236.035L495.552 256.535C495.535 256.91 495.668 257.277 495.921 257.554C496.175 257.831 496.528 257.996 496.903 258.013C497.278 258.03 497.645 257.897 497.922 257.644C498.199 257.391 498.365 257.037 498.382 256.662L503.022 243.264L512.826 248.923C514.241 249.772 515.472 249.079 515.472 247.395L515.401 210.329Z" fill="#92E3A9"/>
<path opacity="0.5" d="M515.401 210.329C515.351 209.409 515.085 208.513 514.626 207.715C514.166 206.916 513.526 206.236 512.756 205.731L474.444 183.618C473.029 182.769 471.798 183.462 471.798 185.16V222.184C471.846 223.105 472.111 224.001 472.571 224.8C473.03 225.599 473.672 226.278 474.444 226.782L490.487 236.035L495.552 256.535C495.535 256.91 495.668 257.277 495.921 257.554C496.175 257.831 496.528 257.996 496.903 258.013C497.278 258.03 497.645 257.897 497.922 257.644C498.199 257.391 498.365 257.037 498.382 256.662L503.022 243.264L512.826 248.923C514.241 249.772 515.472 249.079 515.472 247.395L515.401 210.329Z" fill="white"/>
<path d="M486.314 200.482C487.096 200.927 487.818 201.469 488.464 202.095C489.042 202.657 489.558 203.278 490.006 203.948C490.395 204.541 490.713 205.177 490.954 205.844C491.153 206.411 491.282 207 491.336 207.598C491.336 208.206 491.407 208.843 491.407 209.508C491.407 210.173 491.407 210.781 491.336 211.347C491.302 211.803 491.171 212.247 490.954 212.649C490.742 213.02 490.407 213.306 490.006 213.455C489.501 213.594 488.969 213.594 488.464 213.455C487.703 213.279 486.976 212.978 486.314 212.564C485.528 212.124 484.801 211.587 484.149 210.965C483.569 210.42 483.056 209.807 482.621 209.14C481.881 208.046 481.42 206.789 481.277 205.476C481.277 204.868 481.277 204.231 481.277 203.566C481.277 202.901 481.277 202.293 481.277 201.741C481.321 201.281 481.455 200.833 481.673 200.425C481.878 200.048 482.216 199.76 482.621 199.619C483.116 199.463 483.642 199.439 484.149 199.548C484.92 199.729 485.653 200.046 486.314 200.482ZM499.839 209.098C499.983 208.991 500.155 208.928 500.334 208.914C500.591 208.931 500.84 209.014 501.056 209.154L503.079 210.329C503.311 210.46 503.513 210.639 503.673 210.852C503.805 211.033 503.879 211.25 503.885 211.475C503.89 211.522 503.89 211.569 503.885 211.616C503.86 211.669 503.827 211.716 503.786 211.758L487.12 224.066C486.975 224.174 486.804 224.242 486.625 224.264C486.366 224.247 486.116 224.159 485.903 224.009L483.88 222.849C483.645 222.716 483.442 222.532 483.286 222.312C483.15 222.137 483.071 221.925 483.06 221.703C483.049 221.652 483.049 221.599 483.06 221.548C483.079 221.493 483.114 221.444 483.159 221.406L499.839 209.098ZM488.096 209.098C488.116 208.891 488.116 208.682 488.096 208.475V206.65C488.115 206.429 488.115 206.207 488.096 205.985C488.05 205.488 487.901 205.006 487.658 204.571C487.332 204.041 486.867 203.61 486.314 203.326C485.663 202.944 485.21 202.845 484.899 203.014C484.765 203.122 484.657 203.257 484.581 203.411C484.505 203.565 484.464 203.734 484.46 203.906C484.46 204.033 484.46 204.231 484.46 204.528C484.46 204.825 484.46 205.108 484.46 205.419C484.46 205.731 484.46 206.042 484.46 206.339C484.46 206.636 484.46 206.862 484.46 207.018C484.513 207.514 484.662 207.994 484.899 208.433C485.246 208.971 485.736 209.402 486.314 209.678C486.964 210.06 487.417 210.159 487.658 209.989C487.786 209.887 487.89 209.758 487.963 209.611C488.036 209.465 488.077 209.304 488.082 209.14L488.096 209.098ZM500.914 220.713C501.7 221.158 502.428 221.7 503.079 222.326C503.652 222.888 504.164 223.509 504.607 224.179C505.006 224.766 505.325 225.403 505.554 226.075C505.751 226.643 505.884 227.232 505.951 227.829C505.951 228.438 505.951 229.074 505.951 229.739C505.951 230.404 505.951 231.012 505.951 231.578C505.907 232.034 505.772 232.477 505.554 232.88C505.458 233.07 505.324 233.24 505.161 233.378C504.999 233.517 504.81 233.621 504.607 233.686C504.108 233.833 503.577 233.833 503.079 233.686C502.313 233.51 501.582 233.209 500.914 232.795C500.133 232.355 499.41 231.818 498.764 231.196C498.184 230.647 497.666 230.035 497.221 229.371C496.83 228.78 496.512 228.143 496.274 227.476C496.076 226.908 495.948 226.319 495.892 225.721C495.892 225.099 495.892 224.462 495.892 223.797C495.892 223.132 495.892 222.524 495.892 221.972C495.924 221.511 496.054 221.063 496.274 220.656C496.481 220.282 496.818 219.995 497.221 219.85C497.728 219.725 498.257 219.725 498.764 219.85C499.528 220.023 500.256 220.33 500.914 220.755V220.713ZM502.711 229.371C502.722 229.164 502.722 228.956 502.711 228.749V226.966C502.711 226.683 502.711 226.457 502.711 226.315C502.652 225.821 502.503 225.342 502.272 224.901C501.921 224.366 501.432 223.936 500.857 223.656C500.207 223.274 499.754 223.175 499.513 223.344C499.38 223.452 499.271 223.587 499.195 223.741C499.119 223.895 499.078 224.064 499.075 224.236C499.06 224.443 499.06 224.651 499.075 224.858C499.075 225.141 499.075 225.438 499.075 225.75C499.075 226.061 499.075 226.372 499.075 226.683C499.062 226.905 499.062 227.127 499.075 227.348C499.119 227.846 499.268 228.328 499.513 228.763C499.835 229.296 500.301 229.728 500.857 230.008C501.508 230.39 501.961 230.489 502.272 230.319C502.405 230.208 502.513 230.069 502.588 229.913C502.664 229.757 502.706 229.587 502.711 229.414V229.371Z" fill="#FAFAFA"/>
<path d="M349.662 68.3711C349.61 67.4513 349.344 66.5564 348.885 65.758C348.425 64.9595 347.785 64.2798 347.016 63.7731L308.704 41.6745C307.289 40.8256 306.059 41.5047 306.059 43.2024V80.2268C306.108 81.149 306.373 82.0468 306.832 82.8478C307.292 83.6489 307.933 84.3309 308.704 84.839L324.748 94.0915L329.813 114.549C329.868 114.866 330.03 115.154 330.271 115.367C330.513 115.58 330.819 115.704 331.141 115.718C331.462 115.733 331.779 115.638 332.039 115.449C332.299 115.259 332.487 114.987 332.571 114.676L337.212 101.279L347.016 106.938C348.431 107.786 349.662 107.107 349.662 105.41V68.3711Z" fill="#92E3A9"/>
<path opacity="0.5" d="M349.662 68.3711C349.61 67.4513 349.344 66.5564 348.885 65.758C348.425 64.9595 347.785 64.2798 347.016 63.7731L308.704 41.6745C307.289 40.8256 306.059 41.5047 306.059 43.2024V80.2268C306.108 81.149 306.373 82.0468 306.832 82.8478C307.292 83.6489 307.933 84.3309 308.704 84.839L324.748 94.0915L329.813 114.549C329.868 114.866 330.03 115.154 330.271 115.367C330.513 115.58 330.819 115.704 331.141 115.718C331.462 115.733 331.779 115.638 332.039 115.449C332.299 115.259 332.487 114.987 332.571 114.676L337.212 101.279L347.016 106.938C348.431 107.786 349.662 107.107 349.662 105.41V68.3711Z" fill="white"/>
<path d="M320.574 58.5809C321.356 59.0257 322.078 59.5676 322.724 60.1938C323.298 60.759 323.815 61.3798 324.266 62.0471C324.66 62.6369 324.979 63.2738 325.214 63.9429C325.414 64.5096 325.542 65.0989 325.596 65.6972C325.596 66.3055 325.667 66.9422 325.667 67.6071C325.667 68.2721 325.667 68.8804 325.596 69.4463C325.564 69.907 325.434 70.3556 325.214 70.7621C325.009 71.1358 324.671 71.4186 324.266 71.5543C323.768 71.7168 323.235 71.7412 322.724 71.6251C321.961 71.4488 321.234 71.1425 320.574 70.7196C319.785 70.2844 319.057 69.7468 318.409 69.1209C317.83 68.5752 317.317 67.9626 316.881 67.2959C316.482 66.7093 316.163 66.0716 315.933 65.4001C315.737 64.8318 315.604 64.2434 315.537 63.6458C315.537 63.0233 315.537 62.3866 315.537 61.7358C315.537 61.0851 315.537 60.4484 315.537 59.8966C315.581 59.4362 315.716 58.989 315.933 58.5809C316.138 58.2036 316.476 57.9161 316.881 57.7745C317.383 57.6493 317.908 57.6493 318.409 57.7745C319.172 57.9164 319.904 58.1892 320.574 58.5809ZM334.099 67.1968C334.247 67.0969 334.417 67.0338 334.594 67.0129C334.854 67.0299 335.103 67.118 335.316 67.2676L337.339 68.4277C337.568 68.5636 337.769 68.7412 337.933 68.9512C338.064 69.1331 338.138 69.3497 338.145 69.5737C338.151 69.6254 338.151 69.6776 338.145 69.7293C338.117 69.7796 338.084 69.827 338.046 69.8707L321.38 82.1792C321.232 82.2792 321.063 82.3423 320.885 82.3631C320.626 82.3461 320.376 82.258 320.164 82.1085L318.141 80.9484C317.906 80.8202 317.703 80.6414 317.546 80.4249C317.416 80.243 317.342 80.0263 317.334 79.8024C317.321 79.7562 317.321 79.7071 317.334 79.6609C317.353 79.6015 317.387 79.5479 317.433 79.5053L334.099 67.1968ZM322.356 67.1968C322.377 66.9899 322.377 66.7813 322.356 66.5743V64.7493C322.376 64.5328 322.376 64.315 322.356 64.0985C322.315 63.6006 322.165 63.1179 321.918 62.6837C321.597 62.1463 321.131 61.71 320.574 61.4246C319.923 61.0568 319.47 60.9436 319.159 61.1275C319.028 61.2374 318.921 61.3735 318.846 61.5269C318.77 61.6804 318.728 61.8479 318.721 62.0188C318.721 62.132 318.721 62.3442 318.721 62.6272C318.721 62.9101 318.721 63.2072 318.721 63.5326C318.721 63.858 318.721 64.1551 318.721 64.4522C318.721 64.7493 318.721 64.9757 318.721 65.1171C318.776 65.6122 318.925 66.0923 319.159 66.5319C319.506 67.0701 319.996 67.5012 320.574 67.7769C321.225 68.1589 321.677 68.2579 321.918 68.0881C322.048 67.9872 322.155 67.8589 322.231 67.7123C322.307 67.5656 322.35 67.4042 322.356 67.2393V67.1968ZM335.174 78.8121C335.964 79.2569 336.692 79.8039 337.339 80.439C337.916 80.9927 338.428 81.6097 338.867 82.2782C339.264 82.8664 339.582 83.5036 339.815 84.174C340.01 84.7427 340.143 85.3309 340.211 85.9283C340.211 86.5508 340.211 87.1875 340.211 87.8524C340.211 88.5174 340.211 89.1257 340.211 89.6775C340.167 90.1379 340.033 90.5852 339.815 90.9932C339.61 91.3705 339.272 91.658 338.867 91.7996C338.367 91.9397 337.839 91.9397 337.339 91.7996C336.573 91.6233 335.842 91.3222 335.174 90.9083C334.398 90.4599 333.677 89.9235 333.024 89.3096C332.447 88.7523 331.93 88.1358 331.482 87.4704C331.093 86.8775 330.775 86.2412 330.534 85.5746C330.335 85.0079 330.206 84.4186 330.152 83.8203C330.152 83.212 330.081 82.5753 330.081 81.9104C330.081 81.2455 330.081 80.6371 330.152 80.0712C330.186 79.6108 330.316 79.1626 330.534 78.7555C330.746 78.3876 331.082 78.107 331.482 77.9632C331.98 77.8027 332.511 77.7735 333.024 77.8783C333.792 78.0773 334.519 78.4075 335.174 78.8545V78.8121ZM336.971 87.4704C336.982 87.2631 336.982 87.0553 336.971 86.8479V85.0653C336.971 84.7824 336.971 84.556 336.971 84.4145C336.922 83.9181 336.773 83.4367 336.532 82.9998C336.186 82.4573 335.697 82.0215 335.118 81.7406C334.467 81.3728 334.014 81.2596 333.774 81.4435C333.638 81.549 333.527 81.684 333.451 81.8385C333.375 81.993 333.336 82.1627 333.335 82.3348C333.32 82.5373 333.32 82.7407 333.335 82.9432C333.335 83.2261 333.335 83.5232 333.335 83.8486C333.335 84.174 333.335 84.4711 333.335 84.7682C333.321 84.9896 333.321 85.2117 333.335 85.4332C333.377 85.931 333.526 86.4138 333.774 86.8479C334.095 87.3853 334.561 87.8217 335.118 88.1071C335.768 88.4749 336.24 88.5739 336.532 88.4042C336.666 88.2967 336.775 88.1612 336.851 88.0072C336.926 87.8532 336.968 87.6845 336.971 87.5129V87.4704Z" fill="#FAFAFA"/>
<path d="M86.6284 209.183C86.6787 208.263 86.9443 207.367 87.4038 206.569C87.8633 205.77 88.5039 205.091 89.274 204.585L127.586 182.472C129.001 181.623 130.231 182.316 130.231 184.014V221.038C130.183 221.959 129.919 222.855 129.459 223.654C128.999 224.453 128.358 225.132 127.586 225.636L111.542 234.889L106.478 255.361C106.494 255.736 106.362 256.102 106.108 256.38C105.855 256.657 105.502 256.822 105.126 256.839C104.751 256.856 104.385 256.723 104.107 256.47C103.83 256.216 103.665 255.863 103.648 255.488L99.0217 242.09L89.2174 247.749C87.8026 248.598 86.5718 247.905 86.5718 246.221L86.6284 209.183Z" fill="#92E3A9"/>
<g opacity="0.5">
<path d="M86.6284 209.183C86.6787 208.263 86.9443 207.367 87.4038 206.569C87.8633 205.77 88.5039 205.091 89.274 204.585L127.586 182.472C129.001 181.623 130.231 182.316 130.231 184.014V221.038C130.183 221.959 129.919 222.855 129.459 223.654C128.999 224.453 128.358 225.132 127.586 225.636L111.542 234.889L106.478 255.361C106.494 255.736 106.362 256.102 106.108 256.38C105.855 256.657 105.502 256.822 105.126 256.839C104.751 256.856 104.385 256.723 104.107 256.47C103.83 256.216 103.665 255.863 103.648 255.488L99.0217 242.09L89.2174 247.749C87.8026 248.598 86.5718 247.905 86.5718 246.221L86.6284 209.183Z" fill="white"/>
</g>
<path d="M100.012 206.424C100.778 205.948 101.62 205.608 102.502 205.419C103.094 205.3 103.707 205.329 104.285 205.504C104.75 205.672 105.137 206.004 105.374 206.438C105.627 206.905 105.777 207.422 105.812 207.952C105.869 208.603 105.897 209.31 105.897 210.074C105.897 210.838 105.869 211.574 105.812 212.281C105.751 212.976 105.603 213.66 105.374 214.318C105.103 215.087 104.737 215.819 104.285 216.497C103.773 217.27 103.175 217.982 102.502 218.619C101.75 219.336 100.914 219.958 100.012 220.472C99.2369 220.947 98.3918 221.295 97.5078 221.505C96.9222 221.636 96.3127 221.611 95.7394 221.435C95.2744 221.267 94.8869 220.935 94.65 220.501C94.3925 220.034 94.2381 219.518 94.1973 218.987C94.1973 218.336 94.1973 217.572 94.1973 216.865C94.1973 216.157 94.1973 215.365 94.1973 214.658C94.2649 213.963 94.417 213.279 94.65 212.621C94.9152 211.849 95.2815 211.117 95.7394 210.442C96.2539 209.671 96.8465 208.955 97.5078 208.306C98.2628 207.579 99.1038 206.947 100.012 206.424ZM115.574 198.346C115.735 198.036 115.924 197.742 116.14 197.468C116.378 197.197 116.661 196.967 116.975 196.789L119.323 195.375C119.519 195.231 119.763 195.17 120.003 195.205C120.172 195.205 120.257 195.389 120.257 195.615C120.267 195.69 120.267 195.766 120.257 195.841L120.144 196.139L100.875 232.611C100.715 232.916 100.525 233.205 100.309 233.474C100.074 233.749 99.7912 233.979 99.4743 234.153L97.14 235.568C96.9392 235.711 96.691 235.772 96.4467 235.738C96.277 235.738 96.1921 235.554 96.1921 235.328C96.1822 235.252 96.1822 235.176 96.1921 235.101L96.3053 234.804L115.574 198.346ZM102.078 214.092C102.097 213.838 102.097 213.582 102.078 213.328V211.22C102.098 210.98 102.098 210.738 102.078 210.498C102.07 210.3 102.02 210.106 101.933 209.928C101.845 209.75 101.721 209.592 101.568 209.466C101.285 209.268 100.762 209.466 100.012 209.819C99.4332 210.111 98.9393 210.546 98.5775 211.084C98.2158 211.622 97.9984 212.243 97.9464 212.889C97.9257 213.148 97.9257 213.409 97.9464 213.667C97.9464 214.007 97.9464 214.361 97.9464 214.729C97.9464 215.096 97.9464 215.436 97.9464 215.775C97.9243 216.011 97.9243 216.248 97.9464 216.483C97.9464 216.683 97.9923 216.88 98.0806 217.059C98.1689 217.238 98.2973 217.394 98.4557 217.516C98.7387 217.714 99.248 217.586 100.012 217.162C100.65 216.842 101.189 216.352 101.568 215.747C101.85 215.236 102.023 214.673 102.078 214.092ZM116.89 210.414C117.662 209.937 118.509 209.593 119.394 209.395C119.982 209.275 120.59 209.304 121.163 209.48C121.628 209.647 122.015 209.98 122.252 210.414C122.51 210.88 122.664 211.396 122.705 211.927C122.705 212.578 122.776 213.342 122.776 214.049C122.776 214.757 122.776 215.549 122.705 216.256C122.638 216.952 122.486 217.636 122.252 218.294C121.984 219.068 121.618 219.805 121.163 220.487C120.079 222.122 118.625 223.48 116.918 224.448C116.15 224.925 115.309 225.274 114.428 225.481C113.839 225.619 113.223 225.594 112.646 225.41C112.178 225.247 111.789 224.914 111.556 224.476C111.302 224.01 111.152 223.493 111.118 222.962C111.118 222.326 111.033 221.548 111.033 220.854C111.033 220.161 111.033 219.341 111.118 218.633C111.179 217.943 111.326 217.264 111.556 216.61C111.827 215.837 112.193 215.1 112.646 214.417C113.161 213.643 113.759 212.927 114.428 212.281C115.161 211.538 115.989 210.896 116.89 210.371V210.414ZM118.956 218.025C118.975 217.771 118.975 217.515 118.956 217.261V215.167C118.976 214.927 118.976 214.686 118.956 214.446C118.957 214.246 118.911 214.048 118.823 213.869C118.735 213.69 118.606 213.534 118.446 213.413C118.163 213.215 117.654 213.328 116.89 213.767C116.254 214.09 115.717 214.579 115.334 215.181C115.061 215.686 114.888 216.238 114.825 216.808C114.811 217.063 114.811 217.318 114.825 217.572C114.825 217.926 114.825 218.28 114.825 218.633C114.825 218.987 114.825 219.355 114.825 219.68C114.81 219.916 114.81 220.152 114.825 220.388C114.832 220.586 114.882 220.78 114.969 220.958C115.057 221.136 115.181 221.294 115.334 221.42C115.617 221.618 116.14 221.505 116.89 221.067C117.529 220.747 118.067 220.257 118.446 219.652C118.738 219.14 118.912 218.57 118.956 217.983V218.025Z" fill="#FAFAFA"/>
</svg>
